<svg width="24" height="25" viewBox="0 0 24 25" fill="none" xmlns="http://www.w3.org/2000/svg">
<path d="M4.38226 0.679688C1.95468 0.679688 0 2.63437 0 5.06194V20.2975C0 22.725 1.95468 24.6797 4.38226 24.6797H12.6398V15.2972H10.1588V11.9192H12.6398V9.0332C12.6398 6.7658 14.1057 4.68394 17.4825 4.68394C18.8497 4.68394 19.8608 4.8152 19.8608 4.8152L19.7813 7.96971C19.7813 7.96971 18.7501 7.95997 17.625 7.95997C16.4073 7.95997 16.212 8.52104 16.212 9.45248V11.9192H19.878L19.7183 15.2972H16.212V24.6797H19.6177C22.0453 24.6797 24 22.7251 24 20.2975V5.06197C24 2.63439 22.0453 0.679712 19.6177 0.679712H4.38223L4.38226 0.679688Z" fill="white"/>
</svg>
