<svg width="200" height="56" viewBox="0 0 200 56" fill="none" xmlns="http://www.w3.org/2000/svg">
<g clip-path="url(#clip0_173_874)">
<path d="M83.8125 6.67702V24.7693H81.0409L70.9942 12.5355V24.7693H67.6597V6.67702H70.4312L80.478 18.9109V6.67702H83.8125ZM94.5954 24.9416C93.2097 24.9416 91.9105 24.6401 90.7846 24.037C89.6586 23.4339 88.7925 22.6155 88.143 21.5386C87.5367 20.4616 87.1903 19.2124 87.1903 17.877C87.1903 16.5416 87.4934 15.2924 88.143 14.2155C88.7925 13.1386 89.6586 12.3201 90.7846 11.717C91.9105 11.1139 93.1664 10.8124 94.5954 10.8124C96.0245 10.8124 97.2803 11.1139 98.4063 11.717C99.5322 12.3201 100.398 13.1386 101.048 14.2155C101.697 15.2924 102.001 16.4986 102.001 17.877C102.001 19.2555 101.697 20.4616 101.048 21.5386C100.442 22.6155 99.5322 23.4339 98.4063 24.037C97.2803 24.6401 96.0245 24.9416 94.5954 24.9416ZM94.5954 22.1847C95.808 22.1847 96.7607 21.797 97.5402 20.9786C98.3197 20.2032 98.7094 19.1263 98.7094 17.8339C98.7094 16.5416 98.3197 15.5078 97.5402 14.6893C96.7607 13.9139 95.7647 13.4832 94.5954 13.4832C93.3829 13.4832 92.4302 13.8709 91.6507 14.6893C90.8712 15.4647 90.5247 16.5416 90.5247 17.8339C90.5247 19.1263 90.9145 20.1601 91.6507 20.9786C92.4302 21.797 93.3829 22.1847 94.5954 22.1847ZM108.193 12.9663C109.146 11.5016 110.792 10.8124 113.13 10.8124V13.8709C112.87 13.8278 112.61 13.7847 112.394 13.7847C111.138 13.7847 110.142 14.1724 109.449 14.9047C108.756 15.637 108.366 16.6709 108.366 18.0493V24.7693H105.119V10.9847H108.193V12.9663ZM129.369 5.6001V24.7693H126.251V23.0032C125.732 23.6493 125.039 24.1663 124.259 24.4678C123.48 24.8124 122.614 24.9416 121.661 24.9416C120.319 24.9416 119.106 24.6401 118.067 24.0801C117.027 23.477 116.161 22.6586 115.555 21.5816C114.949 20.5047 114.646 19.2555 114.646 17.877C114.646 16.4986 114.949 15.2493 115.555 14.1724C116.161 13.0955 116.984 12.277 118.067 11.6739C119.149 11.0709 120.362 10.8124 121.661 10.8124C122.57 10.8124 123.437 10.9847 124.173 11.2863C124.952 11.5878 125.602 12.0616 126.122 12.6647V5.6001H129.369ZM122.008 22.1847C122.787 22.1847 123.48 22.0124 124.129 21.6678C124.736 21.3232 125.255 20.8063 125.602 20.1601C125.948 19.5139 126.165 18.7386 126.165 17.877C126.165 17.0155 125.992 16.2401 125.602 15.5939C125.255 14.9478 124.736 14.4309 124.129 14.0863C123.523 13.7416 122.787 13.5263 122.008 13.5263C121.228 13.5263 120.535 13.6986 119.886 14.0863C119.279 14.4309 118.76 14.9478 118.413 15.5939C118.067 16.2401 117.85 17.0155 117.85 17.877C117.85 18.7386 118.023 19.5139 118.413 20.1601C118.76 20.8063 119.279 21.3232 119.886 21.6678C120.535 22.0124 121.228 22.1847 122.008 22.1847Z" fill="#E85E23"/>
<path d="M74.805 50.8739C73.4192 50.8739 72.0335 50.6585 70.7343 50.2708C69.4352 49.8832 68.3959 49.3662 67.6597 48.677L68.8289 46.0493C69.5651 46.6524 70.4745 47.1262 71.5571 47.5139C72.6397 47.8585 73.7224 48.0739 74.8483 48.0739C76.1908 48.0739 77.1868 47.8585 77.8797 47.4278C78.5725 46.997 78.8757 46.437 78.8757 45.7047C78.8757 45.1878 78.7025 44.757 78.3127 44.4555C77.9663 44.1108 77.4899 43.8524 76.927 43.637C76.364 43.4647 75.5845 43.2493 74.5885 42.9909C73.2027 42.6462 72.0768 42.3447 71.2107 42.0001C70.3446 41.6555 69.6084 41.1816 69.0021 40.4924C68.3959 39.8032 68.0927 38.8555 68.0927 37.6493C68.0927 36.6585 68.3526 35.7539 68.9155 34.9355C69.4785 34.117 70.3013 33.4708 71.3839 32.9539C72.5098 32.4801 73.8523 32.2216 75.4546 32.2216C76.5805 32.2216 77.6631 32.3509 78.7458 32.6524C79.8284 32.9109 80.7378 33.3416 81.5173 33.8585L80.4347 36.4862C79.6552 36.0124 78.7891 35.6678 77.923 35.4093C77.0569 35.1508 76.2341 35.0647 75.4113 35.0647C74.0688 35.0647 73.0728 35.2801 72.4232 35.7539C71.7736 36.1847 71.4705 36.7878 71.4705 37.5201C71.4705 38.037 71.6437 38.4678 72.0335 38.7693C72.4232 39.1139 72.8996 39.3724 73.4625 39.5447C74.0255 39.717 74.805 39.9324 75.801 40.1909C77.1435 40.4924 78.2694 40.837 79.1355 41.1816C80.0016 41.5262 80.7378 42.0001 81.3441 42.6893C81.9503 43.3785 82.2968 44.3262 82.2968 45.4893C82.2968 46.4801 82.0369 47.3847 81.474 48.2032C80.9543 49.0216 80.1315 49.6678 79.0056 50.1416C77.7497 50.6155 76.364 50.8739 74.805 50.8739ZM91.4341 50.7878C90.0484 50.7878 88.7492 50.4862 87.6233 49.8832C86.4974 49.2801 85.6313 48.4616 84.9817 47.3847C84.3754 46.3078 84.029 45.0585 84.029 43.7232C84.029 42.3447 84.3321 41.1385 84.9817 40.0616C85.6313 38.9847 86.4974 38.1662 87.6233 37.5632C88.7492 36.9601 90.0051 36.6585 91.4341 36.6585C92.8632 36.6585 94.119 36.9601 95.245 37.5632C96.3709 38.1662 97.237 38.9847 97.8866 40.0616C98.5362 41.1385 98.8393 42.3447 98.8393 43.7232C98.8393 45.1016 98.5362 46.3078 97.8866 47.3847C97.2803 48.4616 96.3709 49.2801 95.245 49.8832C94.119 50.4862 92.8199 50.7878 91.4341 50.7878ZM91.4341 48.0308C92.6467 48.0308 93.5994 47.6432 94.3789 46.8247C95.1584 46.0493 95.5481 44.9724 95.5481 43.6801C95.5481 42.3878 95.1584 41.3539 94.3789 40.5355C93.5994 39.7601 92.6034 39.3293 91.4341 39.3293C90.2649 39.3293 89.2689 39.717 88.4894 40.5355C87.7099 41.3108 87.3635 42.3878 87.3635 43.6801C87.3635 44.9724 87.7532 46.0062 88.4894 46.8247C89.2256 47.6432 90.2216 48.0308 91.4341 48.0308ZM107.544 33.8585C106.158 33.8585 105.508 34.5909 105.508 36.0985V36.917H109.319V39.5016H105.595V50.6155H102.347V39.5016H100.052V36.917H102.347V36.0555C102.347 34.5908 102.78 33.4278 103.646 32.5662C104.512 31.7047 105.725 31.2739 107.327 31.2739C108.583 31.2739 109.536 31.5324 110.272 32.0062L109.362 34.4185C108.799 34.0739 108.193 33.8585 107.544 33.8585ZM119.842 49.8832C119.453 50.1847 118.976 50.4432 118.456 50.5724C117.937 50.7447 117.331 50.7878 116.724 50.7878C115.209 50.7878 114.039 50.4001 113.173 49.5816C112.35 48.8062 111.917 47.6432 111.917 46.1355V39.5016H109.622V36.917H111.917V33.7724H115.165V36.917H118.89V39.5016H115.209V46.0493C115.209 46.7385 115.382 47.2555 115.685 47.6001C116.031 47.9447 116.508 48.117 117.114 48.117C117.85 48.117 118.456 47.9447 118.933 47.557L119.842 49.8832ZM143.92 36.8308L138.81 50.6155H135.692L132.098 41.0955L128.46 50.6155H125.342L120.232 36.8308H123.307L126.988 46.997L130.798 36.8308H133.527L137.251 47.0832L141.018 36.8308H143.92ZM152.018 50.7878C150.632 50.7878 149.333 50.4862 148.207 49.8832C147.081 49.2801 146.215 48.4616 145.565 47.3847C144.959 46.3078 144.613 45.0585 144.613 43.7232C144.613 42.3447 144.916 41.1385 145.565 40.0616C146.215 38.9847 147.081 38.1662 148.207 37.5632C149.333 36.9601 150.589 36.6585 152.018 36.6585C153.447 36.6585 154.703 36.9601 155.829 37.5632C156.955 38.1662 157.821 38.9847 158.47 40.0616C159.12 41.1385 159.423 42.3447 159.423 43.7232C159.423 45.1016 159.12 46.3078 158.47 47.3847C157.864 48.4616 156.955 49.2801 155.829 49.8832C154.703 50.4862 153.447 50.7878 152.018 50.7878ZM152.018 48.0308C153.23 48.0308 154.183 47.6432 154.963 46.8247C155.742 46.0493 156.132 44.9724 156.132 43.6801C156.132 42.3878 155.742 41.3539 154.963 40.5355C154.183 39.7601 153.187 39.3293 152.018 39.3293C150.805 39.3293 149.853 39.717 149.073 40.5355C148.294 41.3108 147.947 42.3878 147.947 43.6801C147.947 44.9724 148.337 46.0062 149.073 46.8247C149.809 47.6432 150.805 48.0308 152.018 48.0308ZM165.616 38.8124C166.568 37.3478 168.214 36.6585 170.552 36.6585V39.717C170.293 39.6739 170.033 39.6308 169.816 39.6308C168.56 39.6308 167.564 40.0185 166.872 40.7508C166.179 41.4832 165.789 42.517 165.789 43.8955V50.6155H162.541V36.8308H165.616V38.8124ZM178.954 44.7139L176.529 46.997V50.6585H173.281V31.4462H176.529V43.0339L183.284 36.8308H187.182L181.379 42.6032L187.701 50.6155H183.76L178.954 44.7139ZM193.677 50.7878C192.551 50.7878 191.469 50.6585 190.386 50.357C189.304 50.0555 188.437 49.7109 187.831 49.237L189.087 46.7816C189.693 47.2124 190.473 47.5139 191.339 47.7724C192.205 48.0308 193.071 48.117 193.937 48.117C195.886 48.117 196.839 47.6001 196.839 46.6093C196.839 46.1355 196.579 45.7908 196.102 45.6185C195.626 45.4462 194.847 45.2308 193.721 45.0585C192.595 44.8862 191.642 44.6708 190.906 44.4555C190.213 44.2401 189.563 43.8524 189.044 43.2924C188.524 42.7324 188.264 41.957 188.264 40.9232C188.264 39.6308 188.827 38.5539 189.91 37.7785C191.036 37.0032 192.508 36.5724 194.37 36.5724C195.323 36.5724 196.276 36.7016 197.228 36.917C198.181 37.1324 198.961 37.3908 199.567 37.7785L198.311 40.2339C197.142 39.5447 195.799 39.2001 194.327 39.2001C193.374 39.2001 192.638 39.3293 192.162 39.6308C191.685 39.8893 191.425 40.277 191.425 40.7508C191.425 41.2678 191.685 41.6555 192.205 41.8708C192.725 42.0862 193.547 42.2585 194.673 42.4739C195.799 42.6462 196.709 42.8616 197.402 43.077C198.094 43.2924 198.701 43.6801 199.22 44.197C199.74 44.7139 200 45.4893 200 46.4801C200 47.7724 199.437 48.8062 198.311 49.5816C197.142 50.4001 195.626 50.7878 193.677 50.7878Z" fill="white"/>
<path d="M0 8.75C0 3.9375 3.96444 0 8.80987 0H47.5733C52.4187 0 56.3832 3.9375 56.3832 8.75V47.25C56.3832 52.0625 52.4187 56 47.5733 56H8.80987C3.96444 56 0 52.0625 0 47.25V8.75Z" fill="#E85E23"/>
<path d="M43.6088 8.45783L36.5626 -1.01021C36.3863 -1.27001 36.144 -1.3999 35.8355 -1.3999C35.527 -1.3999 35.2406 -1.27001 35.1084 -1.01021L28.2356 8.45783C28.0594 8.71762 28.0153 9.06402 28.1916 9.36711C28.3238 9.6702 28.6322 9.8001 28.9848 9.8001H32.4203V28.0001L22.5535 12.9465C22.3773 12.73 22.1129 12.6001 21.8485 12.6001H16.3867C15.902 12.6001 15.5054 12.9898 15.5054 13.4661V39.7341C15.5054 40.2104 15.902 40.6001 16.3867 40.6001H21.6719C22.1567 40.6001 22.5533 40.2104 22.5533 39.7341V25.2001L32.42 40.2537C32.5963 40.4702 32.8607 40.6001 33.1251 40.6001H38.5869C39.0716 40.6001 39.4682 40.2104 39.4682 39.7341V9.8001H42.9037C43.2122 9.8001 43.5207 9.6269 43.6969 9.32381C43.8292 9.06402 43.7851 8.71762 43.6088 8.45783Z" fill="white"/>
</g>
<defs>
<clipPath id="clip0_173_874">
<rect width="200" height="56" fill="white"/>
</clipPath>
</defs>
</svg>
