<svg width="142" height="40" viewBox="0 0 142 40" fill="none" xmlns="http://www.w3.org/2000/svg">
<g clip-path="url(#clip0_258_195)">
<path d="M59.5071 4.76923V17.6923H57.5393L50.4061 8.95385V17.6923H48.0386V4.76923H50.0064L57.1396 13.5077V4.76923H59.5071ZM67.163 17.8154C66.1791 17.8154 65.2567 17.6 64.4573 17.1692C63.6578 16.7385 63.0429 16.1538 62.5817 15.3846C62.1513 14.6154 61.9053 13.7231 61.9053 12.7692C61.9053 11.8154 62.1205 10.9231 62.5817 10.1538C63.0429 9.38462 63.6578 8.8 64.4573 8.36923C65.2567 7.93846 66.1483 7.72308 67.163 7.72308C68.1776 7.72308 69.0692 7.93846 69.8687 8.36923C70.6681 8.8 71.283 9.38462 71.7442 10.1538C72.2054 10.9231 72.4206 11.7846 72.4206 12.7692C72.4206 13.7538 72.2054 14.6154 71.7442 15.3846C71.3137 16.1538 70.6681 16.7385 69.8687 17.1692C69.0692 17.6 68.1776 17.8154 67.163 17.8154ZM67.163 15.8462C68.0239 15.8462 68.7003 15.5692 69.2537 14.9846C69.8072 14.4308 70.0839 13.6615 70.0839 12.7385C70.0839 11.8154 69.8072 11.0769 69.2537 10.4923C68.7003 9.93846 67.9931 9.63077 67.163 9.63077C66.302 9.63077 65.6256 9.90769 65.0722 10.4923C64.5187 11.0462 64.2728 11.8154 64.2728 12.7385C64.2728 13.6615 64.5495 14.4 65.0722 14.9846C65.6256 15.5692 66.302 15.8462 67.163 15.8462ZM76.8174 9.26154C77.4938 8.21538 78.6622 7.72308 80.3225 7.72308V9.90769C80.138 9.87692 79.9535 9.84615 79.7998 9.84615C78.9082 9.84615 78.201 10.1231 77.709 10.6462C77.2171 11.1692 76.9404 11.9077 76.9404 12.8923V17.6923H74.6344V7.84615H76.8174V9.26154ZM91.8525 4V17.6923H89.6387V16.4308C89.2698 16.8923 88.7778 17.2615 88.2244 17.4769C87.6709 17.7231 87.056 17.8154 86.3796 17.8154C85.4264 17.8154 84.5655 17.6 83.8276 17.2C83.0897 16.7692 82.4748 16.1846 82.0443 15.4154C81.6138 14.6462 81.3986 13.7538 81.3986 12.7692C81.3986 11.7846 81.6138 10.8923 82.0443 10.1231C82.4748 9.35385 83.0589 8.76923 83.8276 8.33846C84.5963 7.90769 85.4572 7.72308 86.3796 7.72308C87.0252 7.72308 87.6402 7.84615 88.1629 8.06154C88.7163 8.27692 89.1775 8.61538 89.5465 9.04615V4H91.8525ZM86.6255 15.8462C87.179 15.8462 87.6709 15.7231 88.1321 15.4769C88.5626 15.2308 88.9315 14.8615 89.1775 14.4C89.4235 13.9385 89.5772 13.3846 89.5772 12.7692C89.5772 12.1538 89.4542 11.6 89.1775 11.1385C88.9315 10.6769 88.5626 10.3077 88.1321 10.0615C87.7017 9.81538 87.179 9.66154 86.6255 9.66154C86.0721 9.66154 85.5802 9.78462 85.119 10.0615C84.6885 10.3077 84.3195 10.6769 84.0736 11.1385C83.8276 11.6 83.6739 12.1538 83.6739 12.7692C83.6739 13.3846 83.7969 13.9385 84.0736 14.4C84.3195 14.8615 84.6885 15.2308 85.119 15.4769C85.5802 15.7231 86.0721 15.8462 86.6255 15.8462Z" fill="#E85E23"/>
<path d="M53.1118 36.3384C52.1279 36.3384 51.144 36.1845 50.2216 35.9076C49.2992 35.6307 48.5613 35.2615 48.0386 34.7691L48.8687 32.8922C49.3914 33.323 50.0371 33.6615 50.8058 33.9384C51.5744 34.1845 52.3431 34.3384 53.1425 34.3384C54.0957 34.3384 54.8028 34.1845 55.2948 33.8768C55.7867 33.5691 56.0019 33.1691 56.0019 32.6461C56.0019 32.2768 55.879 31.9691 55.6022 31.7538C55.3563 31.5076 55.0181 31.323 54.6183 31.1691C54.2186 31.0461 53.6652 30.8922 52.958 30.7076C51.9741 30.4615 51.1747 30.2461 50.5598 29.9999C49.9449 29.7538 49.4222 29.4153 48.9917 28.923C48.5613 28.4307 48.346 27.7538 48.346 26.8922C48.346 26.1845 48.5305 25.5384 48.9302 24.9538C49.3299 24.3691 49.9141 23.9076 50.6828 23.5384C51.4822 23.1999 52.4353 23.0153 53.573 23.0153C54.3724 23.0153 55.141 23.1076 55.9097 23.323C56.6784 23.5076 57.324 23.8153 57.8775 24.1845L57.1088 26.0615C56.5554 25.723 55.9404 25.4768 55.3255 25.2922C54.7106 25.1076 54.1264 25.0461 53.5422 25.0461C52.5891 25.0461 51.8819 25.1999 51.4207 25.5384C50.9595 25.8461 50.7443 26.2768 50.7443 26.7999C50.7443 27.1691 50.8673 27.4768 51.144 27.6922C51.4207 27.9384 51.7589 28.123 52.1586 28.2461C52.5583 28.3691 53.1118 28.523 53.8189 28.7076C54.7721 28.923 55.5715 29.1691 56.1864 29.4153C56.8013 29.6615 57.324 29.9999 57.7545 30.4922C58.1849 30.9845 58.4309 31.6615 58.4309 32.4922C58.4309 33.1999 58.2464 33.8461 57.8467 34.4307C57.4778 35.0153 56.8936 35.4768 56.0942 35.8153C55.2025 36.1538 54.2186 36.3384 53.1118 36.3384ZM64.9184 36.2768C63.9346 36.2768 63.0122 36.0615 62.2127 35.6307C61.4133 35.1999 60.7984 34.6153 60.3372 33.8461C59.9068 33.0768 59.6608 32.1845 59.6608 31.2307C59.6608 30.2461 59.876 29.3845 60.3372 28.6153C60.7984 27.8461 61.4133 27.2615 62.2127 26.8307C63.0122 26.3999 63.9038 26.1845 64.9184 26.1845C65.9331 26.1845 66.8247 26.3999 67.6241 26.8307C68.4236 27.2615 69.0385 27.8461 69.4997 28.6153C69.9609 29.3845 70.1761 30.2461 70.1761 31.2307C70.1761 32.2153 69.9609 33.0768 69.4997 33.8461C69.0692 34.6153 68.4236 35.1999 67.6241 35.6307C66.8247 36.0615 65.9023 36.2768 64.9184 36.2768ZM64.9184 34.3076C65.7794 34.3076 66.4558 34.0307 67.0092 33.4461C67.5627 32.8922 67.8394 32.123 67.8394 31.1999C67.8394 30.2768 67.5627 29.5384 67.0092 28.9538C66.4558 28.3999 65.7486 28.0922 64.9184 28.0922C64.0883 28.0922 63.3811 28.3691 62.8277 28.9538C62.2742 29.5076 62.0283 30.2768 62.0283 31.1999C62.0283 32.123 62.305 32.8615 62.8277 33.4461C63.3504 34.0307 64.0575 34.3076 64.9184 34.3076ZM76.3562 24.1845C75.3723 24.1845 74.9111 24.7076 74.9111 25.7845V26.3691H77.6168V28.2153H74.9726V36.1538H72.6666V28.2153H71.037V26.3691H72.6666V25.7538C72.6666 24.7076 72.9741 23.8768 73.589 23.2615C74.2039 22.6461 75.0648 22.3384 76.2024 22.3384C77.0941 22.3384 77.7705 22.523 78.2932 22.8615L77.6475 24.5845C77.2478 24.3384 76.8174 24.1845 76.3562 24.1845ZM85.0882 35.6307C84.8115 35.8461 84.4733 36.0307 84.1043 36.123C83.7354 36.2461 83.3049 36.2768 82.8745 36.2768C81.7983 36.2768 80.9682 35.9999 80.3532 35.4153C79.769 34.8615 79.4616 34.0307 79.4616 32.9538V28.2153H77.832V26.3691H79.4616V24.123H81.7676V26.3691H84.4118V28.2153H81.7983V32.8922C81.7983 33.3845 81.9213 33.7538 82.1365 33.9999C82.3825 34.2461 82.7207 34.3691 83.1512 34.3691C83.6739 34.3691 84.1043 34.2461 84.4425 33.9691L85.0882 35.6307ZM102.183 26.3076L98.5552 36.1538H96.3414L93.7895 29.3538L91.2068 36.1538H88.993L85.3649 26.3076H87.5479L90.1614 33.5691L92.8671 26.3076H94.8041L97.4483 33.6307L100.123 26.3076H102.183ZM107.933 36.2768C106.949 36.2768 106.027 36.0615 105.227 35.6307C104.428 35.1999 103.813 34.6153 103.352 33.8461C102.921 33.0768 102.675 32.1845 102.675 31.2307C102.675 30.2461 102.89 29.3845 103.352 28.6153C103.813 27.8461 104.428 27.2615 105.227 26.8307C106.027 26.3999 106.918 26.1845 107.933 26.1845C108.948 26.1845 109.839 26.3999 110.639 26.8307C111.438 27.2615 112.053 27.8461 112.514 28.6153C112.975 29.3845 113.191 30.2461 113.191 31.2307C113.191 32.2153 112.975 33.0768 112.514 33.8461C112.084 34.6153 111.438 35.1999 110.639 35.6307C109.839 36.0615 108.948 36.2768 107.933 36.2768ZM107.933 34.3076C108.794 34.3076 109.47 34.0307 110.024 33.4461C110.577 32.8922 110.854 32.123 110.854 31.1999C110.854 30.2768 110.577 29.5384 110.024 28.9538C109.47 28.3999 108.763 28.0922 107.933 28.0922C107.072 28.0922 106.396 28.3691 105.842 28.9538C105.289 29.5076 105.043 30.2768 105.043 31.1999C105.043 32.123 105.319 32.8615 105.842 33.4461C106.365 34.0307 107.072 34.3076 107.933 34.3076ZM117.587 27.723C118.264 26.6768 119.432 26.1845 121.092 26.1845V28.3691C120.908 28.3384 120.723 28.3076 120.57 28.3076C119.678 28.3076 118.971 28.5845 118.479 29.1076C117.987 29.6307 117.71 30.3691 117.71 31.3538V36.1538H115.404V26.3076H117.587V27.723ZM127.057 31.9384L125.335 33.5691V36.1845H123.029V22.4615H125.335V30.7384L130.132 26.3076H132.899L128.779 30.4307L133.268 36.1538H130.47L127.057 31.9384ZM137.511 36.2768C136.712 36.2768 135.943 36.1845 135.174 35.9691C134.406 35.7538 133.791 35.5076 133.36 35.1691L134.252 33.4153C134.682 33.723 135.236 33.9384 135.851 34.123C136.466 34.3076 137.081 34.3691 137.696 34.3691C139.079 34.3691 139.756 33.9999 139.756 33.2922C139.756 32.9538 139.571 32.7076 139.233 32.5845C138.895 32.4615 138.341 32.3076 137.542 32.1845C136.742 32.0615 136.066 31.9076 135.543 31.7538C135.051 31.5999 134.59 31.323 134.221 30.923C133.852 30.523 133.668 29.9691 133.668 29.2307C133.668 28.3076 134.067 27.5384 134.836 26.9845C135.636 26.4307 136.681 26.123 138.003 26.123C138.679 26.123 139.356 26.2153 140.032 26.3691C140.709 26.523 141.262 26.7076 141.693 26.9845L140.801 28.7384C139.971 28.2461 139.018 27.9999 137.972 27.9999C137.296 27.9999 136.773 28.0922 136.435 28.3076C136.097 28.4922 135.912 28.7691 135.912 29.1076C135.912 29.4768 136.097 29.7538 136.466 29.9076C136.835 30.0615 137.419 30.1845 138.218 30.3384C139.018 30.4615 139.663 30.6153 140.155 30.7691C140.647 30.923 141.078 31.1999 141.447 31.5691C141.816 31.9384 142 32.4922 142 33.1999C142 34.123 141.6 34.8615 140.801 35.4153C139.971 35.9999 138.895 36.2768 137.511 36.2768Z" fill="white"/>
<path d="M0 6.25C0 2.8125 2.81475 0 6.25501 0H33.777C37.2173 0 40.0321 2.8125 40.0321 6.25V33.75C40.0321 37.1875 37.2173 40 33.777 40H6.25501C2.81475 40 0 37.1875 0 33.75V6.25Z" fill="#E85E23"/>
<path d="M30.9622 6.04124L25.9594 -0.721649C25.8343 -0.907217 25.6622 -1 25.4432 -1C25.2242 -1 25.0208 -0.907217 24.9269 -0.721649L20.0473 6.04124C19.9221 6.2268 19.8908 6.47423 20.016 6.69072C20.1099 6.90722 20.3289 7 20.5792 7H23.0184V20L16.013 9.24742C15.8878 9.09278 15.7001 9 15.5124 9H11.6345C11.2904 9 11.0088 9.27835 11.0088 9.61856V28.3815C11.0088 28.7217 11.2904 29 11.6345 29H15.387C15.7312 29 16.0128 28.7217 16.0128 28.3815V18L23.0182 28.7526C23.1434 28.9072 23.3311 29 23.5188 29H27.3967C27.7408 29 28.0224 28.7216 28.0224 28.3814V7H30.4616C30.6806 7 30.8997 6.87629 31.0248 6.65979C31.1187 6.47423 31.0874 6.2268 30.9622 6.04124Z" fill="white"/>
</g>
<defs>
<clipPath id="clip0_258_195">
<rect width="142" height="40" fill="white"/>
</clipPath>
</defs>
</svg>
