<svg width="113" height="97" viewBox="0 0 113 97" fill="none" xmlns="http://www.w3.org/2000/svg">
<path fill-rule="evenodd" clip-rule="evenodd" d="M47.0027 8.53695C48.0115 4.73003 45.1412 1 41.2029 1H26.786C24.2305 1 21.9555 2.61859 21.1177 5.03279L1.84156 60.5751C1.54537 61.3148 1.2824 62.0714 1.05449 62.843L1.00156 62.9955C1.00086 62.9975 1.00259 62.9995 1.0047 62.9992C1.00674 62.9988 1.00845 63.0007 1.00788 63.0027C0.351624 65.2789 0 67.6842 0 70.1716C0 84.4364 11.5638 96.0002 25.8286 96.0002C40.0933 96.0002 51.6571 84.4364 51.6571 70.1716C51.6571 61.638 47.5186 54.071 41.1392 49.3681C38.8105 47.6514 37.3979 44.7814 38.139 41.9849L47.0027 8.53695Z" fill="#F4F4F4"/>
<path fill-rule="evenodd" clip-rule="evenodd" d="M107.777 8.29268C108.784 4.48615 105.914 0.757324 101.976 0.757324H88.2131C85.6569 0.757324 83.3813 2.37686 82.5441 4.79207L63.3264 60.2276C62.0485 63.2883 61.3428 66.6475 61.3428 70.1716C61.3428 84.4363 72.9066 96.0002 87.1713 96.0002C101.436 96.0002 113 84.4363 113 70.1716C113 61.4622 108.689 53.7596 102.085 49.081C99.6807 47.3779 98.2025 44.4618 98.9564 41.6136L107.777 8.29268Z" fill="#F4F4F4"/>
</svg>
