<svg width="24" height="25" viewBox="0 0 24 25" fill="none" xmlns="http://www.w3.org/2000/svg">
<path d="M20 8.21094C19.4167 8.47135 18.7865 8.64844 18.1094 8.74219C18.8177 8.32552 19.3021 7.71615 19.5625 6.91406C18.8854 7.3099 18.1875 7.57552 17.4688 7.71094C16.8333 7.02344 16.0365 6.67969 15.0781 6.67969C14.1719 6.67969 13.3984 7 12.7578 7.64062C12.1172 8.28125 11.7969 9.05469 11.7969 9.96094C11.7969 10.263 11.8229 10.513 11.875 10.7109C10.5312 10.638 9.27083 10.2995 8.09375 9.69531C6.91667 9.09115 5.91667 8.28385 5.09375 7.27344C4.79167 7.79427 4.64062 8.34635 4.64062 8.92969C4.64062 10.1172 5.11458 11.0286 6.0625 11.6641C5.57292 11.6536 5.05208 11.5182 4.5 11.2578V11.2891C4.5 12.0703 4.76042 12.7656 5.28125 13.375C5.80208 13.9844 6.44271 14.362 7.20312 14.5078C6.90104 14.5911 6.63542 14.6328 6.40625 14.6328C6.27083 14.6328 6.06771 14.612 5.79688 14.5703C6.01562 15.2266 6.40365 15.7682 6.96094 16.1953C7.51823 16.6224 8.15104 16.8411 8.85938 16.8516C7.65104 17.7891 6.29167 18.2578 4.78125 18.2578C4.51042 18.2578 4.25 18.2422 4 18.2109C5.54167 19.1901 7.21875 19.6797 9.03125 19.6797C10.1979 19.6797 11.2917 19.4948 12.3125 19.125C13.3333 18.7552 14.2083 18.2604 14.9375 17.6406C15.6667 17.0208 16.2943 16.3073 16.8203 15.5C17.3464 14.6927 17.737 13.849 17.9922 12.9688C18.2474 12.0885 18.375 11.2109 18.375 10.3359C18.375 10.1484 18.3698 10.0078 18.3594 9.91406C19.0156 9.44531 19.5625 8.8776 20 8.21094ZM24 5.17969V20.1797C24 21.4193 23.5599 22.4792 22.6797 23.3594C21.7995 24.2396 20.7396 24.6797 19.5 24.6797H4.5C3.26042 24.6797 2.20052 24.2396 1.32031 23.3594C0.440104 22.4792 0 21.4193 0 20.1797V5.17969C0 3.9401 0.440104 2.88021 1.32031 2C2.20052 1.11979 3.26042 0.679688 4.5 0.679688H19.5C20.7396 0.679688 21.7995 1.11979 22.6797 2C23.5599 2.88021 24 3.9401 24 5.17969Z" fill="white"/>
</svg>
